# Created by FreeCAD <https://www.freecad.org>
v -21970.208984 -9183.095703 12000.000000
v -2986.552979 23697.140625 12000.000000
v -2986.552979 23697.140625 -14000.000000
v -21970.208984 -9183.095703 -14000.000000
v -18937.898438 -14435.200195 12000.000000
v -19070.392578 -13174.285156 12000.000000
v -18937.898438 -14435.200195 -14000.000000
v -19070.392578 -13174.285156 -14000.000000
v -19462.166016 -11968.477539 12000.000000
v -19462.166016 -11968.477539 -14000.000000
v -20096.095703 -10870.482422 -14000.000000
v -20096.095703 -10870.482422 12000.000000
v -20944.470703 -9928.293945 12000.000000
v -20944.470703 -9928.293945 -14000.000000
v 18937.898438 -14435.200195 12000.000000
v 18937.898438 -14435.200195 -14000.000000
v 21970.208984 -9183.095703 12000.000000
v 20944.470703 -9928.293945 12000.000000
v 21970.208984 -9183.095703 -14000.000000
v 20944.470703 -9928.293945 -14000.000000
v 20096.095703 -10870.482422 12000.000000
v 20096.095703 -10870.482422 -14000.000000
v 19462.166016 -11968.477539 12000.000000
v 19462.166016 -11968.477539 -14000.000000
v 19070.392578 -13174.285156 -14000.000000
v 19070.392578 -13174.285156 12000.000000
v 2986.552979 23697.140625 12000.000000
v 2986.552979 23697.140625 -14000.000000
v -1845.791260 23189.240234 -14000.000000
v -1845.791260 23189.240234 12000.000000
v -624.359619 22929.617188 12000.000000
v -624.359619 22929.617188 -14000.000000
v 624.359619 22929.617188 -14000.000000
v 624.359619 22929.617188 12000.000000
v 1845.791260 23189.240234 12000.000000
v 1845.791260 23189.240234 -14000.000000
v -2432.659912 -2155.148682 12000.000000
v -1846.210449 -2674.697510 12000.000000
v -2877.732178 -1510.350342 12000.000000
v -1152.465942 -3038.802734 12000.000000
v -3155.560791 -777.775879 12000.000000
v -391.744202 -3226.303955 12000.000000
v -3250.000000 0.000000 12000.000000
v 391.744202 -3226.303955 12000.000000
v -3155.560791 777.775879 12000.000000
v -2877.732178 1510.350342 12000.000000
v 1152.465942 -3038.802734 12000.000000
v 1846.210449 -2674.697510 12000.000000
v 2432.659912 -2155.148682 12000.000000
v 2877.732178 -1510.350342 12000.000000
v 3155.560791 -777.775879 12000.000000
v 3250.000000 0.000000 12000.000000
v 3155.560791 777.775879 12000.000000
v 2877.732178 1510.350342 12000.000000
v -2432.659912 2155.148682 12000.000000
v -1846.210449 2674.697510 12000.000000
v -1152.465942 3038.802734 12000.000000
v -391.744202 3226.303955 12000.000000
v 391.744202 3226.303955 12000.000000
v 1152.465942 3038.802734 12000.000000
v 1846.210449 2674.697510 12000.000000
v 2432.659912 2155.148682 12000.000000
v -2245.532227 -1989.367920 12000.000000
v -1704.194214 -2468.951660 12000.000000
v -2656.368164 -1394.169556 12000.000000
v -1063.814697 -2805.048828 12000.000000
v -2912.825439 -717.947021 12000.000000
v -361.610046 -2978.126709 12000.000000
v -3000.000000 0.000000 12000.000000
v 361.610046 -2978.126709 12000.000000
v -2912.825439 717.947021 12000.000000
v 1063.814697 -2805.048828 12000.000000
v -2656.368164 1394.169556 12000.000000
v 1704.194214 -2468.951660 12000.000000
v -2245.532227 1989.367920 12000.000000
v 2245.532227 -1989.367920 12000.000000
v -1704.194214 2468.951660 12000.000000
v 2656.368164 -1394.169556 12000.000000
v -1063.814697 2805.048828 12000.000000
v 2912.825439 -717.947021 12000.000000
v -361.610046 2978.126709 12000.000000
v 3000.000000 0.000000 12000.000000
v 361.610046 2978.126709 12000.000000
v 2912.825439 717.947021 12000.000000
v 2656.368164 1394.169556 12000.000000
v 1063.814697 2805.048828 12000.000000
v 2245.532227 1989.367920 12000.000000
v 1704.194214 2468.951660 12000.000000
vn -0.866023 0.500005 0.000000
vn -0.866023 0.500005 0.000000
vn -0.994525 -0.104502 -0.000000
vn -0.994525 -0.104502 0.000000
vn -0.951060 -0.309005 0.000000
vn -0.866025 -0.500001 0.000000
vn -0.951060 -0.309005 -0.000000
vn -0.866025 -0.500001 0.000000
vn -0.743135 -0.669141 0.000000
vn -0.587762 -0.809034 0.000000
vn -0.743135 -0.669141 -0.000000
vn -0.587762 -0.809034 0.000000
vn -0.000000 -1.000000 0.000000
vn 0.000000 -1.000000 -0.000000
vn 0.587762 -0.809034 0.000000
vn 0.587762 -0.809034 0.000000
vn 0.743135 -0.669141 0.000000
vn 0.743135 -0.669141 0.000000
vn 0.866025 -0.500001 0.000000
vn 0.951060 -0.309005 0.000000
vn 0.866025 -0.500001 0.000000
vn 0.951060 -0.309005 0.000000
vn 0.994525 -0.104502 0.000000
vn 0.994525 -0.104502 0.000000
vn 0.866023 0.500005 0.000000
vn 0.866023 0.500005 0.000000
vn 0.406737 0.913545 -0.000000
vn 0.406737 0.913545 0.000000
vn 0.207911 0.978148 0.000000
vn 0.000000 1.000000 0.000000
vn 0.207911 0.978148 0.000000
vn -0.000000 1.000000 0.000000
vn -0.207911 0.978148 0.000000
vn -0.207911 0.978148 0.000000
vn -0.406737 0.913545 0.000000
vn -0.406737 0.913545 0.000000
vn 0.000000 0.000000 1.000000
vn 0.000000 0.000000 1.000000
vn 0.000000 0.000000 1.000000
vn 0.000000 0.000000 1.000000
vn 0.000000 0.000000 1.000000
vn 0.000000 0.000000 1.000000
vn 0.000000 0.000000 1.000000
vn 0.000000 0.000000 1.000000
vn 0.000000 0.000000 1.000000
vn 0.000000 0.000000 1.000000
vn 0.000000 0.000000 1.000000
vn 0.000000 0.000000 1.000000
vn 0.000000 0.000000 1.000000
vn 0.000000 0.000000 1.000000
vn 0.000000 0.000000 1.000000
vn 0.000000 0.000000 1.000000
vn 0.000000 0.000000 -1.000000
vn 0.000000 0.000000 -1.000000
vn 0.000000 0.000000 -1.000000
vn 0.000000 0.000000 -1.000000
vn 0.000000 0.000000 -1.000000
vn 0.000000 0.000000 -1.000000
vn 0.000000 -0.000000 -1.000000
vn 0.000000 0.000000 -1.000000
vn 0.000000 0.000000 -1.000000
vn 0.000000 -0.000000 -1.000000
vn 0.000000 0.000000 -1.000000
vn 0.000000 0.000000 -1.000000
vn 0.000000 -0.000000 -1.000000
vn 0.000000 0.000000 -1.000000
vn 0.000000 0.000000 -1.000000
vn 0.000000 0.000000 -1.000000
vn -0.866023 0.500005 0.000000
vn -0.866023 0.500005 0.000000
vn -0.994525 -0.104502 -0.000000
vn -0.994525 -0.104502 0.000000
vn -0.951060 -0.309005 0.000000
vn -0.866025 -0.500001 0.000000
vn -0.951060 -0.309005 -0.000000
vn -0.866025 -0.500001 0.000000
vn -0.743135 -0.669141 0.000000
vn -0.587762 -0.809034 0.000000
vn -0.743135 -0.669141 -0.000000
vn -0.587762 -0.809034 0.000000
vn -0.000000 -1.000000 0.000000
vn 0.000000 -1.000000 -0.000000
vn 0.587762 -0.809034 0.000000
vn 0.587762 -0.809034 0.000000
vn 0.743135 -0.669141 0.000000
vn 0.743135 -0.669141 0.000000
vn 0.866025 -0.500001 0.000000
vn 0.951060 -0.309005 0.000000
vn 0.866025 -0.500001 0.000000
vn 0.951060 -0.309005 0.000000
vn 0.994525 -0.104502 0.000000
vn 0.994525 -0.104502 0.000000
vn 0.866023 0.500005 0.000000
vn 0.866023 0.500005 0.000000
vn 0.406737 0.913545 -0.000000
vn 0.406737 0.913545 0.000000
vn 0.207911 0.978148 0.000000
vn 0.000000 1.000000 0.000000
vn 0.207911 0.978148 0.000000
vn -0.000000 1.000000 0.000000
vn -0.207911 0.978148 0.000000
vn -0.207911 0.978148 0.000000
vn -0.406737 0.913545 0.000000
vn -0.406737 0.913545 0.000000
vn 0.000000 0.000000 1.000000
vn 0.000000 0.000000 1.000000
vn 0.000000 0.000000 1.000000
vn 0.000000 0.000000 1.000000
vn 0.000000 0.000000 1.000000
vn 0.000000 0.000000 1.000000
vn 0.000000 0.000000 1.000000
vn 0.000000 0.000000 1.000000
vn 0.000000 0.000000 1.000000
vn 0.000000 0.000000 1.000000
vn 0.000000 0.000000 1.000000
vn 0.000000 0.000000 1.000000
vn 0.000000 0.000000 1.000000
vn 0.000000 0.000000 1.000000
vn 0.000000 0.000000 1.000000
vn 0.000000 0.000000 1.000000
vn 0.000000 0.000000 -1.000000
vn 0.000000 0.000000 -1.000000
vn 0.000000 0.000000 -1.000000
vn 0.000000 0.000000 -1.000000
vn 0.000000 0.000000 -1.000000
vn 0.000000 0.000000 -1.000000
vn 0.000000 -0.000000 -1.000000
vn 0.000000 0.000000 -1.000000
vn 0.000000 0.000000 -1.000000
vn 0.000000 -0.000000 -1.000000
vn 0.000000 0.000000 -1.000000
vn 0.000000 0.000000 -1.000000
vn 0.000000 -0.000000 -1.000000
vn 0.000000 0.000000 -1.000000
vn 0.000000 0.000000 -1.000000
vn 0.000000 0.000000 -1.000000
vn -0.866023 0.500005 0.000000
vn -0.866023 0.500005 0.000000
vn -0.994525 -0.104502 -0.000000
vn -0.994525 -0.104502 0.000000
vn -0.951060 -0.309005 0.000000
vn -0.866025 -0.500001 0.000000
vn -0.951060 -0.309005 -0.000000
vn -0.866025 -0.500001 0.000000
vn -0.743135 -0.669141 0.000000
vn -0.587762 -0.809034 0.000000
vn -0.743135 -0.669141 -0.000000
vn -0.587762 -0.809034 0.000000
vn -0.000000 -1.000000 0.000000
vn 0.000000 -1.000000 -0.000000
vn 0.587762 -0.809034 0.000000
vn 0.587762 -0.809034 0.000000
vn 0.743135 -0.669141 0.000000
vn 0.743135 -0.669141 0.000000
vn 0.866025 -0.500001 0.000000
vn 0.951060 -0.309005 0.000000
vn 0.866025 -0.500001 0.000000
vn 0.951060 -0.309005 0.000000
vn 0.994525 -0.104502 0.000000
vn 0.994525 -0.104502 0.000000
vn 0.866023 0.500005 0.000000
vn 0.866023 0.500005 0.000000
vn 0.406737 0.913545 -0.000000
vn 0.406737 0.913545 0.000000
vn 0.207911 0.978148 0.000000
vn 0.000000 1.000000 0.000000
vn 0.207911 0.978148 0.000000
vn -0.000000 1.000000 0.000000
vn -0.207911 0.978148 0.000000
vn -0.207911 0.978148 0.000000
vn -0.406737 0.913545 0.000000
vn -0.406737 0.913545 0.000000
vn 0.000000 0.000000 1.000000
vn 0.000000 0.000000 1.000000
vn 0.000000 0.000000 1.000000
vn 0.000000 0.000000 1.000000
vn 0.000000 0.000000 1.000000
vn 0.000000 0.000000 1.000000
vn 0.000000 0.000000 1.000000
vn 0.000000 0.000000 1.000000
vn 0.000000 0.000000 1.000000
vn 0.000000 0.000000 1.000000
vn 0.000000 0.000000 1.000000
vn 0.000000 0.000000 1.000000
vn 0.000000 0.000000 1.000000
vn 0.000000 0.000000 1.000000
vn 0.000000 0.000000 1.000000
vn 0.000000 0.000000 1.000000
vn 0.000000 0.000000 1.000000
vn 0.000000 0.000000 1.000000
vn 0.000000 0.000000 1.000000
vn 0.000000 0.000000 1.000000
vn 0.000000 0.000000 1.000000
vn 0.000000 0.000000 1.000000
vn 0.000000 0.000000 1.000000
vn 0.000000 0.000000 1.000000
vn 0.000000 0.000000 1.000000
vn 0.000000 0.000000 1.000000
vn 0.000000 0.000000 1.000000
vn 0.000000 0.000000 1.000000
vn 0.000000 0.000000 1.000000
vn 0.000000 0.000000 1.000000
vn 0.000000 0.000000 1.000000
vn 0.000000 0.000000 1.000000
vn 0.000000 0.000000 1.000000
vn 0.000000 0.000000 1.000000
vn 0.000000 0.000000 1.000000
vn 0.000000 0.000000 1.000000
vn 0.000000 0.000000 1.000000
vn 0.000000 0.000000 1.000000
vn 0.000000 0.000000 1.000000
vn 0.000000 0.000000 1.000000
vn 0.000000 0.000000 1.000000
vn 0.000000 0.000000 1.000000
vn 0.000000 0.000000 1.000000
vn 0.000000 0.000000 1.000000
vn 0.000000 0.000000 1.000000
vn 0.000000 0.000000 1.000000
vn 0.000000 0.000000 1.000000
vn 0.000000 0.000000 1.000000
vn 0.000000 0.000000 1.000000
vn 0.000000 0.000000 1.000000
vn 0.000000 0.000000 1.000000
vn 0.000000 0.000000 1.000000
vn 0.000000 0.000000 1.000000
vn 0.000000 0.000000 1.000000
vn 0.000000 0.000000 1.000000
vn 0.000000 0.000000 1.000000
vn 0.000000 0.000000 1.000000
vn 0.000000 0.000000 1.000000
vn 0.000000 0.000000 1.000000
vn 0.000000 0.000000 1.000000
vn 0.000000 0.000000 1.000000
vn 0.000000 0.000000 1.000000
vn 0.000000 0.000000 1.000000
vn 0.000000 0.000000 1.000000
vn 0.000000 0.000000 1.000000
vn 0.000000 0.000000 1.000000
vn 0.000000 0.000000 1.000000
vn 0.000000 0.000000 1.000000
vn 0.000000 0.000000 1.000000
vn 0.000000 0.000000 1.000000
vn 0.000000 0.000000 1.000000
vn 0.000000 0.000000 1.000000
vn 0.000000 0.000000 1.000000
vn 0.000000 0.000000 1.000000
vn 0.000000 0.000000 1.000000
vn 0.000000 0.000000 1.000000
vn 0.000000 0.000000 1.000000
vn 0.000000 0.000000 1.000000
vn 0.000000 0.000000 1.000000
vn 0.000000 0.000000 1.000000
vn 0.000000 0.000000 1.000000
vn 0.000000 0.000000 1.000000
vn 0.000000 0.000000 1.000000
vn 0.000000 0.000000 1.000000
vn 0.000000 0.000000 1.000000
vn 0.000000 0.000000 1.000000
vn 0.000000 0.000000 1.000000
vn 0.000000 0.000000 1.000000
vn 0.000000 0.000000 1.000000
vn 0.000000 0.000000 1.000000
vn 0.000000 0.000000 1.000000
vn 0.000000 0.000000 1.000000
vn 0.000000 0.000000 1.000000
vn 0.000000 0.000000 1.000000
vn 0.000000 0.000000 1.000000
vn 0.000000 0.000000 1.000000
vn 0.000000 0.000000 1.000000
vn 0.000000 0.000000 1.000000
vn 0.000000 0.000000 1.000000
vn 0.000000 0.000000 1.000000
vn 0.000000 0.000000 1.000000
vn 0.000000 0.000000 1.000000
vn 0.000000 0.000000 1.000000
vn 0.000000 0.000000 1.000000
vn 0.000000 0.000000 1.000000
vn 0.000000 0.000000 1.000000
vn 0.000000 0.000000 1.000000
vn 0.000000 0.000000 1.000000
vn 0.000000 0.000000 1.000000
vn 0.000000 0.000000 1.000000
vn 0.000000 0.000000 1.000000
vn 0.000000 0.000000 1.000000
vn 0.000000 0.000000 1.000000
vn 0.000000 0.000000 1.000000
vn 0.000000 0.000000 1.000000
vn 0.000000 0.000000 1.000000
vn 0.000000 0.000000 1.000000
vn 0.000000 0.000000 1.000000
vn 0.000000 0.000000 1.000000
vn 0.000000 0.000000 1.000000
vn 0.000000 0.000000 -1.000000
vn 0.000000 0.000000 -1.000000
vn 0.000000 0.000000 -1.000000
vn 0.000000 0.000000 -1.000000
vn 0.000000 0.000000 -1.000000
vn 0.000000 0.000000 -1.000000
vn 0.000000 -0.000000 -1.000000
vn 0.000000 0.000000 -1.000000
vn 0.000000 0.000000 -1.000000
vn 0.000000 -0.000000 -1.000000
vn 0.000000 0.000000 -1.000000
vn 0.000000 0.000000 -1.000000
vn 0.000000 -0.000000 -1.000000
vn 0.000000 0.000000 -1.000000
vn 0.000000 0.000000 -1.000000
vn 0.000000 0.000000 -1.000000
f 1//1 2//1 3//1
f 1//2 3//2 4//2
f 5//3 6//3 7//3
f 7//4 6//4 8//4
f 8//5 9//5 10//5
f 10//6 9//6 11//6
f 6//7 9//7 8//7
f 9//8 12//8 11//8
f 11//9 13//9 14//9
f 14//10 13//10 4//10
f 12//11 13//11 11//11
f 13//12 1//12 4//12
f 15//13 5//13 7//13
f 15//14 7//14 16//14
f 17//15 18//15 19//15
f 19//16 18//16 20//16
f 20//17 21//17 22//17
f 18//18 21//18 20//18
f 22//19 23//19 24//19
f 24//20 23//20 25//20
f 21//21 23//21 22//21
f 23//22 26//22 25//22
f 25//23 15//23 16//23
f 26//24 15//24 25//24
f 27//25 17//25 19//25
f 27//26 19//26 28//26
f 3//27 2//27 29//27
f 2//28 30//28 29//28
f 29//29 31//29 32//29
f 32//30 31//30 33//30
f 30//31 31//31 29//31
f 31//32 34//32 33//32
f 33//33 35//33 36//33
f 34//34 35//34 33//34
f 36//35 27//35 28//35
f 35//36 27//36 36//36
f 26//37 6//37 5//37
f 26//38 5//38 15//38
f 23//39 9//39 6//39
f 23//40 12//40 9//40
f 23//41 6//41 26//41
f 21//42 12//42 23//42
f 30//43 2//43 1//43
f 30//44 1//44 13//44
f 31//45 13//45 12//45
f 31//46 30//46 13//46
f 34//47 21//47 18//47
f 34//48 12//48 21//48
f 34//49 31//49 12//49
f 35//50 18//50 17//50
f 35//51 34//51 18//51
f 27//52 35//52 17//52
f 8//53 25//53 7//53
f 7//54 25//54 16//54
f 10//55 24//55 8//55
f 11//56 24//56 10//56
f 8//57 24//57 25//57
f 11//58 22//58 24//58
f 3//59 29//59 4//59
f 4//60 29//60 14//60
f 14//61 32//61 11//61
f 29//62 32//62 14//62
f 22//63 33//63 20//63
f 11//64 33//64 22//64
f 32//65 33//65 11//65
f 20//66 36//66 19//66
f 33//67 36//67 20//67
f 36//68 28//68 19//68
f 1//69 2//69 3//69
f 1//70 3//70 4//70
f 5//71 6//71 7//71
f 7//72 6//72 8//72
f 8//73 9//73 10//73
f 10//74 9//74 11//74
f 6//75 9//75 8//75
f 9//76 12//76 11//76
f 11//77 13//77 14//77
f 14//78 13//78 4//78
f 12//79 13//79 11//79
f 13//80 1//80 4//80
f 15//81 5//81 7//81
f 15//82 7//82 16//82
f 17//83 18//83 19//83
f 19//84 18//84 20//84
f 20//85 21//85 22//85
f 18//86 21//86 20//86
f 22//87 23//87 24//87
f 24//88 23//88 25//88
f 21//89 23//89 22//89
f 23//90 26//90 25//90
f 25//91 15//91 16//91
f 26//92 15//92 25//92
f 27//93 17//93 19//93
f 27//94 19//94 28//94
f 3//95 2//95 29//95
f 2//96 30//96 29//96
f 29//97 31//97 32//97
f 32//98 31//98 33//98
f 30//99 31//99 29//99
f 31//100 34//100 33//100
f 33//101 35//101 36//101
f 34//102 35//102 33//102
f 36//103 27//103 28//103
f 35//104 27//104 36//104
f 26//105 6//105 5//105
f 26//106 5//106 15//106
f 23//107 9//107 6//107
f 23//108 12//108 9//108
f 23//109 6//109 26//109
f 21//110 12//110 23//110
f 30//111 2//111 1//111
f 30//112 1//112 13//112
f 31//113 13//113 12//113
f 31//114 30//114 13//114
f 34//115 21//115 18//115
f 34//116 12//116 21//116
f 34//117 31//117 12//117
f 35//118 18//118 17//118
f 35//119 34//119 18//119
f 27//120 35//120 17//120
f 8//121 25//121 7//121
f 7//122 25//122 16//122
f 10//123 24//123 8//123
f 11//124 24//124 10//124
f 8//125 24//125 25//125
f 11//126 22//126 24//126
f 3//127 29//127 4//127
f 4//128 29//128 14//128
f 14//129 32//129 11//129
f 29//130 32//130 14//130
f 22//131 33//131 20//131
f 11//132 33//132 22//132
f 32//133 33//133 11//133
f 20//134 36//134 19//134
f 33//135 36//135 20//135
f 36//136 28//136 19//136
f 1//137 2//137 3//137
f 1//138 3//138 4//138
f 5//139 6//139 7//139
f 7//140 6//140 8//140
f 8//141 9//141 10//141
f 10//142 9//142 11//142
f 6//143 9//143 8//143
f 9//144 12//144 11//144
f 11//145 13//145 14//145
f 14//146 13//146 4//146
f 12//147 13//147 11//147
f 13//148 1//148 4//148
f 15//149 5//149 7//149
f 15//150 7//150 16//150
f 17//151 18//151 19//151
f 19//152 18//152 20//152
f 20//153 21//153 22//153
f 18//154 21//154 20//154
f 22//155 23//155 24//155
f 24//156 23//156 25//156
f 21//157 23//157 22//157
f 23//158 26//158 25//158
f 25//159 15//159 16//159
f 26//160 15//160 25//160
f 27//161 17//161 19//161
f 27//162 19//162 28//162
f 3//163 2//163 29//163
f 2//164 30//164 29//164
f 29//165 31//165 32//165
f 32//166 31//166 33//166
f 30//167 31//167 29//167
f 31//168 34//168 33//168
f 33//169 35//169 36//169
f 34//170 35//170 33//170
f 36//171 27//171 28//171
f 35//172 27//172 36//172
f 37//173 9//173 6//173
f 38//174 6//174 5//174
f 38//175 37//175 6//175
f 39//176 12//176 9//176
f 39//177 9//177 37//177
f 40//178 38//178 5//178
f 41//179 13//179 12//179
f 41//180 12//180 39//180
f 42//181 40//181 5//181
f 43//182 1//182 13//182
f 43//183 13//183 41//183
f 44//184 42//184 5//184
f 45//185 1//185 43//185
f 46//186 1//186 45//186
f 15//187 47//187 44//187
f 15//188 48//188 47//188
f 15//189 44//189 5//189
f 26//190 49//190 48//190
f 26//191 48//191 15//191
f 23//192 49//192 26//192
f 23//193 50//193 49//193
f 21//194 50//194 23//194
f 21//195 51//195 50//195
f 18//196 51//196 21//196
f 18//197 52//197 51//197
f 17//198 53//198 52//198
f 17//199 52//199 18//199
f 17//200 54//200 53//200
f 2//201 55//201 56//201
f 2//202 46//202 55//202
f 2//203 1//203 46//203
f 30//204 56//204 57//204
f 30//205 2//205 56//205
f 31//206 57//206 58//206
f 31//207 30//207 57//207
f 34//208 59//208 60//208
f 34//209 58//209 59//209
f 34//210 31//210 58//210
f 35//211 60//211 61//211
f 35//212 34//212 60//212
f 27//213 62//213 54//213
f 27//214 61//214 62//214
f 27//215 54//215 17//215
f 27//216 35//216 61//216
f 63//217 39//217 37//217
f 64//218 37//218 38//218
f 64//219 63//219 37//219
f 65//220 39//220 63//220
f 41//221 39//221 65//221
f 66//222 38//222 40//222
f 66//223 64//223 38//223
f 67//224 41//224 65//224
f 68//225 40//225 42//225
f 68//226 66//226 40//226
f 43//227 41//227 67//227
f 69//228 43//228 67//228
f 70//229 42//229 44//229
f 70//230 68//230 42//230
f 45//231 43//231 69//231
f 71//232 45//232 69//232
f 47//233 70//233 44//233
f 72//234 70//234 47//234
f 73//235 46//235 45//235
f 73//236 45//236 71//236
f 74//237 47//237 48//237
f 74//238 72//238 47//238
f 75//239 55//239 46//239
f 75//240 46//240 73//240
f 49//241 76//241 74//241
f 49//242 74//242 48//242
f 77//243 55//243 75//243
f 56//244 55//244 77//244
f 50//245 76//245 49//245
f 50//246 78//246 76//246
f 57//247 56//247 77//247
f 57//248 77//248 79//248
f 51//249 78//249 50//249
f 51//250 80//250 78//250
f 58//251 57//251 79//251
f 58//252 79//252 81//252
f 52//253 80//253 51//253
f 52//254 82//254 80//254
f 59//255 58//255 81//255
f 59//256 81//256 83//256
f 53//257 82//257 52//257
f 53//258 84//258 82//258
f 85//259 84//259 53//259
f 60//260 83//260 86//260
f 60//261 59//261 83//261
f 54//262 87//262 85//262
f 54//263 85//263 53//263
f 61//264 86//264 88//264
f 61//265 60//265 86//265
f 62//266 88//266 87//266
f 62//267 87//267 54//267
f 62//268 61//268 88//268
f 66//269 63//269 64//269
f 71//270 69//270 67//270
f 71//271 67//271 65//271
f 73//272 71//272 65//272
f 74//273 66//273 68//273
f 74//274 68//274 70//274
f 74//275 70//275 72//275
f 75//276 65//276 63//276
f 75//277 63//277 66//277
f 75//278 73//278 65//278
f 80//279 74//279 76//279
f 80//280 76//280 78//280
f 81//281 79//281 77//281
f 81//282 77//282 75//282
f 81//283 75//283 66//283
f 84//284 80//284 82//284
f 84//285 74//285 80//285
f 87//286 84//286 85//286
f 87//287 88//287 86//287
f 87//288 86//288 83//288
f 87//289 83//289 81//289
f 87//290 66//290 74//290
f 87//291 81//291 66//291
f 87//292 74//292 84//292
f 8//293 25//293 7//293
f 7//294 25//294 16//294
f 10//295 24//295 8//295
f 11//296 24//296 10//296
f 8//297 24//297 25//297
f 11//298 22//298 24//298
f 3//299 29//299 4//299
f 4//300 29//300 14//300
f 14//301 32//301 11//301
f 29//302 32//302 14//302
f 22//303 33//303 20//303
f 11//304 33//304 22//304
f 32//305 33//305 11//305
f 20//306 36//306 19//306
f 33//307 36//307 20//307
f 36//308 28//308 19//308
